<?xml version="1.0" standalone="no"?><!DOCTYPE svg PUBLIC "-//W3C//DTD SVG 1.1//EN" "http://www.w3.org/Graphics/SVG/1.1/DTD/svg11.dtd"><svg t="1737262301480" class="icon" viewBox="0 0 1028 1024" version="1.1" xmlns="http://www.w3.org/2000/svg" p-id="2139" width="16.0625" height="16" xmlns:xlink="http://www.w3.org/1999/xlink"><path d="M597.54570376 512l219.97466684-219.97466683c24.44162965-24.44162965 24.44162965-61.10407412 0-85.54570377-24.44162965-24.44162965-61.10407412-24.44162965-85.54570377 0L512 426.45429624 292.02533317 206.4796294C267.58370352 182.03799974 230.92125905 182.03799974 206.4796294 206.4796294c-24.44162965 24.44162965-24.44162965 61.10407412 0 85.54570377L426.45429624 512l-219.97466684 219.97466683c-24.44162965 24.44162965-24.44162965 61.10407412 0 85.54570377 12.22081482 12.22081482 28.51523459 16.29441978 44.80965436 16.29441976s32.58883953-4.07360495 44.80965435-16.29441976L512 597.54570376l219.97466683 219.97466684c12.22081482 12.22081482 28.51523459 16.29441978 44.80965436 16.29441977s32.58883953-4.07360495 44.80965436-16.29441977c24.44162965-24.44162965 24.44162965-61.10407412 0-85.54570377L597.54570376 512z" fill="#cdcdcd" p-id="2140"></path></svg>